<?xml version="1.0" encoding="UTF-8" standalone="no"?>
<!-- Created with Inkscape (http://www.inkscape.org/) -->

<svg
   xmlns:dc="http://purl.org/dc/elements/1.1/"
   xmlns:cc="http://creativecommons.org/ns#"
   xmlns:rdf="http://www.w3.org/1999/02/22-rdf-syntax-ns#"
   xmlns:svg="http://www.w3.org/2000/svg"
   xmlns="http://www.w3.org/2000/svg"
   xmlns:sodipodi="http://sodipodi.sourceforge.net/DTD/sodipodi-0.dtd"
   xmlns:inkscape="http://www.inkscape.org/namespaces/inkscape"
   width="196.91243mm"
   height="79.375023mm"
   viewBox="0 0 196.91243 79.375023"
   version="1.1"
   id="svg888"
   inkscape:version="0.92.3 (2405546, 2018-03-11)"
   sodipodi:docname="logo-llajwa.svg">
  <defs
     id="defs882" />
  <sodipodi:namedview
     id="base"
     pagecolor="#ffffff"
     bordercolor="#666666"
     borderopacity="1.0"
     inkscape:pageopacity="0.0"
     inkscape:pageshadow="2"
     inkscape:zoom="0.35"
     inkscape:cx="753.54652"
     inkscape:cy="-194.4544"
     inkscape:document-units="mm"
     inkscape:current-layer="layer1"
     showgrid="false"
     fit-margin-top="0"
     fit-margin-left="0"
     fit-margin-right="0"
     fit-margin-bottom="0"
     inkscape:window-width="1920"
     inkscape:window-height="1018"
     inkscape:window-x="1358"
     inkscape:window-y="32"
     inkscape:window-maximized="1" />
  <metadata
     id="metadata885">
    <rdf:RDF>
      <cc:Work
         rdf:about="">
        <dc:format>image/svg+xml</dc:format>
        <dc:type
           rdf:resource="http://purl.org/dc/dcmitype/StillImage" />
        <dc:title></dc:title>
      </cc:Work>
    </rdf:RDF>
  </metadata>
  <g
     inkscape:label="Capa 1"
     inkscape:groupmode="layer"
     id="layer1"
     transform="translate(301.8074,-17.675581)">
    <g
       id="g1458">
      <text
         id="text817-4-7-0-3-1-2-3-9-0-2-24-4-3-74-9-9"
         y="68.870476"
         x="-304.13885"
         style="font-style:normal;font-variant:normal;font-weight:normal;font-stretch:normal;font-size:97.14504242px;line-height:1.25;font-family:Winchester;-inkscape-font-specification:'Winchester, Normal';font-variant-ligatures:normal;font-variant-caps:normal;font-variant-numeric:normal;font-feature-settings:normal;text-align:start;letter-spacing:0px;word-spacing:0px;writing-mode:lr-tb;text-anchor:start;fill:#ff0000;fill-opacity:1;stroke:none;stroke-width:2.42857552"
         xml:space="preserve"><tspan
           id="tspan1034-5-6-1-2-5"
           style="font-style:normal;font-variant:normal;font-weight:normal;font-stretch:normal;font-size:97.14401245px;font-family:'Tcho Regular';-inkscape-font-specification:'Tcho Regular, Normal';font-variant-ligatures:normal;font-variant-caps:normal;font-variant-numeric:normal;font-feature-settings:normal;text-align:start;writing-mode:lr-tb;text-anchor:start;fill:#ff0000;fill-opacity:1;stroke-width:2.42857552"
           y="68.870476"
           x="-304.13885"
           sodipodi:role="line">lla wa</tspan></text>
      <g
         transform="matrix(0.13020902,-0.02852661,0.02852661,0.13020902,-456.90023,-326.54062)"
         id="g2937-7-0">
        <path
           style="fill:#fe0000;fill-opacity:1;stroke-width:3.29161239"
           d="m 895.07235,3443.107 c -2.722,-8.4266 3.48646,-17.1139 23.97963,-33.554 73.11493,-58.6546 136.48472,-138.352 164.61892,-207.0342 15.3112,-37.3787 20.8863,-63.3847 21.8217,-101.7937 0.5849,-24.0123 2.5282,-34.7628 8.3097,-45.9682 8.3488,-16.1788 28.2336,-32.5184 40.8946,-33.6009 11.1028,-0.9492 13.4988,-8.7504 8.4621,-27.5509 -3.7515,-14.0027 -3.4197,-17.9002 2.1188,-24.8858 8.5105,-10.7344 11.3422,-10.6932 20.6413,0.3009 8.7995,10.4035 14.7796,32.2549 12.0548,44.0486 -1.5822,6.8479 -0.092,8.9232 10.2521,14.286 6.6558,3.4525 16.132,11.4073 21.0562,17.6814 16.5159,21.0428 17.6919,38.3287 5.8224,85.5673 -36.3615,144.7136 -128.3933,252.8797 -259.62192,305.1373 -48.36573,19.2599 -75.75767,21.7693 -80.41033,7.3662 z m 134.90185,-70.7379 c 89.0935,-55.9685 154.1834,-153.0149 178.1685,-265.6419 8.6824,-40.7708 -11.4416,-64.3468 -46.3609,-54.3134 -17.5956,5.0558 -22.9853,16.6004 -24.4642,52.4031 -2.3087,55.8912 -8.3813,77.3264 -39.0791,137.9437 -31.4797,62.1615 -55.3553,94.6364 -108.64134,147.7719 -7.8621,7.8398 16.25084,-3.0072 40.37704,-18.1634 z"
           id="path903-12-3-9-8-8-7-8"
           inkscape:connector-curvature="0"
           inkscape:export-filename="C:\Users\TECNICOS\Downloads\logo-llajwa-web.png"
           inkscape:export-xdpi="96"
           inkscape:export-ydpi="96" />
        <ellipse
           style="opacity:0.98000004;fill:#fe0000;fill-opacity:1;stroke:none;stroke-width:0;stroke-miterlimit:4;stroke-dasharray:none;stroke-opacity:1"
           id="path1006-4-2-0-4-1-1-2"
           cx="2471.4368"
           cy="2362.1633"
           rx="39.73447"
           ry="170.83798"
           transform="rotate(27.098259)" />
        <ellipse
           style="opacity:0.98000004;fill:#fe0000;fill-opacity:1;stroke:none;stroke-width:0;stroke-miterlimit:4;stroke-dasharray:none;stroke-opacity:1"
           id="path1006-0-7-4-5-2-2-6-9"
           cx="3140.4548"
           cy="1540.3003"
           rx="29.043217"
           ry="87.089813"
           transform="rotate(46.332862)" />
        <ellipse
           style="opacity:0.98000004;fill:#fe0000;fill-opacity:1;stroke:none;stroke-width:0;stroke-miterlimit:4;stroke-dasharray:none;stroke-opacity:1"
           id="path1006-0-1-8-1-2-9-6-4-8"
           cx="2083.9473"
           cy="2420.2852"
           rx="42.551437"
           ry="87.670105"
           transform="matrix(0.92121406,0.38905611,-0.31034762,0.95062314,0,0)" />
      </g>
    </g>
  </g>
</svg>
